<svg xmlns="http://www.w3.org/2000/svg" width="500" height="500" viewBox="0 0 500 500">
  <defs>
    <style>
      .cls-1 {
        fill: #0f57ea;
      }
    </style>
  </defs>
  <title>Team_Logos</title>
  <g id="NY">
    <g>
      <polygon class="cls-1" points="75.75 250 30 204.25 30 295.75 75.75 250"/>
      <polygon class="cls-1" points="125.73 250 30 345.73 30 369.95 55.31 369.95 175.26 250 55.31 130.05 30 130.05 30 154.27 125.73 250"/>
      <polygon class="cls-1" points="225.23 250 105.28 369.95 154.81 369.95 250 274.77 345.19 369.95 394.72 369.95 274.77 250 394.72 130.05 345.19 130.05 250 225.23 154.81 130.05 105.28 130.05 225.23 250"/>
      <polygon class="cls-1" points="470 295.75 470 204.25 424.25 250 470 295.75"/>
      <polygon class="cls-1" points="444.69 369.95 470 369.95 470 345.73 374.27 250 470 154.27 470 130.05 444.69 130.05 324.74 250 444.69 369.95"/>
      <polygon class="cls-1" points="295.21 130.05 204.79 130.05 250 175.26 295.21 130.05"/>
      <polygon class="cls-1" points="204.79 369.95 295.21 369.95 250 324.74 204.79 369.95"/>
    </g>
  </g>
</svg>
